HIERARCHY
ROOT Hips
{
	OFFSET 0.00000 0.00000 0.00000
	CHANNELS 6 Xposition Yposition Zposition Zrotation Yrotation Xrotation 
	JOINT LHipJoint
	{
		OFFSET 0 0 0
		CHANNELS 3 Zrotation Yrotation Xrotation
		JOINT LeftUpLeg
		{
			OFFSET 2.10660 -1.59283 1.11709
			CHANNELS 3 Zrotation Yrotation Xrotation
			JOINT LeftLeg
			{
				OFFSET 2.03633 -5.59477 0.00000
				CHANNELS 3 Zrotation Yrotation Xrotation
				JOINT LeftFoot
				{
					OFFSET 2.74354 -7.53782 0.00000
					CHANNELS 3 Zrotation Yrotation Xrotation
					JOINT LeftToeBase
					{
						OFFSET 0.09177 -0.25215 1.99109
						CHANNELS 3 Zrotation Yrotation Xrotation
						End Site
						{
							OFFSET 0.00000 -0.00000 1.01710
						}
					}
				}
			}
		}
	}
	JOINT RHipJoint
	{
		OFFSET 0 0 0
		CHANNELS 3 Zrotation Yrotation Xrotation
		JOINT RightUpLeg
		{
			OFFSET -1.86456 -1.59283 1.11709
			CHANNELS 3 Zrotation Yrotation Xrotation
			JOINT RightLeg
			{
				OFFSET -2.09328 -5.75123 0.00000
				CHANNELS 3 Zrotation Yrotation Xrotation
				JOINT RightFoot
				{
					OFFSET -2.65375 -7.29113 0.00000
					CHANNELS 3 Zrotation Yrotation Xrotation
					JOINT RightToeBase
					{
						OFFSET -0.08891 -0.24428 1.95541
						CHANNELS 3 Zrotation Yrotation Xrotation
						End Site
						{
							OFFSET -0.00000 -0.00000 0.99928
						}
					}
				}
			}
		}
	}
	JOINT LowerBack
	{
		OFFSET 0 0 0
		CHANNELS 3 Zrotation Yrotation Xrotation
		JOINT Spine
		{
			OFFSET -0.11002 1.82513 -0.30878
			CHANNELS 3 Zrotation Yrotation Xrotation
			JOINT Spine1
			{
				OFFSET 0.02136 1.89008 0.15052
				CHANNELS 3 Zrotation Yrotation Xrotation
				JOINT Neck
				{
					OFFSET 0 0 0
					CHANNELS 3 Zrotation Yrotation Xrotation
					JOINT Neck1
					{
						OFFSET -0.02611 1.82648 0.12298
						CHANNELS 3 Zrotation Yrotation Xrotation
						JOINT Head
						{
							OFFSET 0.06033 1.80858 -0.32888
							CHANNELS 3 Zrotation Yrotation Xrotation
							End Site
							{
								OFFSET 0.01403 1.85203 -0.12607
							}
						}
					}
				}
				JOINT LeftShoulder
				{
					OFFSET 0 0 0
					CHANNELS 3 Zrotation Yrotation Xrotation
					JOINT LeftArm
					{
						OFFSET 3.64598 0.79256 -0.42249
						CHANNELS 3 Zrotation Yrotation Xrotation
						JOINT LeftForeArm
						{
							OFFSET 4.92383 -0.00000 0.00000
							CHANNELS 3 Zrotation Yrotation Xrotation
							JOINT LeftHand
							{
								OFFSET 2.65826 -0.00000 0.00000
								CHANNELS 3 Zrotation Yrotation Xrotation
								JOINT LeftFingerBase
								{
									OFFSET 0 0 0
									CHANNELS 3 Zrotation Yrotation Xrotation
									JOINT LeftHandIndex1
									{
										OFFSET 0.73343 -0.00000 0.00000
										CHANNELS 3 Zrotation Yrotation Xrotation
										End Site
										{
											OFFSET 0.59131 -0.00000 0.00000
										}
									}
								}
								JOINT LThumb
								{
									OFFSET 0 0 0
									CHANNELS 3 Zrotation Yrotation Xrotation
									End Site
									{
										OFFSET 0.60034 -0.00000 0.60034
									}
								}
							}
						}
					}
				}
				JOINT RightShoulder
				{
					OFFSET 0 0 0
					CHANNELS 3 Zrotation Yrotation Xrotation
					JOINT RightArm
					{
						OFFSET -3.83899 0.50520 -0.46242
						CHANNELS 3 Zrotation Yrotation Xrotation
						JOINT RightForeArm
						{
							OFFSET -4.63604 -0.00000 0.00000
							CHANNELS 3 Zrotation Yrotation Xrotation
							JOINT RightHand
							{
								OFFSET -2.86243 -0.00000 -0.00000
								CHANNELS 3 Zrotation Yrotation Xrotation
								JOINT RightFingerBase
								{
									OFFSET 0 0 0
									CHANNELS 3 Zrotation Yrotation Xrotation
									JOINT RightHandIndex1
									{
										OFFSET -0.75891 -0.00000 0.00000
										CHANNELS 3 Zrotation Yrotation Xrotation
										End Site
										{
											OFFSET -0.61185 -0.00000 0.00000
										}
									}
								}
								JOINT RThumb
								{
									OFFSET 0 0 0
									CHANNELS 3 Zrotation Yrotation Xrotation
									End Site
									{
										OFFSET -0.62119 -0.00000 0.62119
									}
								}
							}
						}
					}
				}
			}
		}
	}
}
MOTION
Frames: 8
Frame Time: .0083333
0.7499 16.1264 6.0851 6.5120 -1.1782 2.3749 0.0000 0.0000 0.0000 -34.2583 -6.9714 18.6046 0.0000 0.0000 0.0000 0.3115 5.3169 -13.8433 0.2223 3.0348 8.3756 0.0000 0.0000 0.0000 2.7941 32.6488 -28.7403 -1.9583 -8.7787 25.1055 -0.3367 -10.7027 -19.5248 -0.4107 -4.1139 11.3972 -10.5708 0.1904 12.9115 1.0670 -1.5416 -4.9061 7.5476 0.1854 -12.5094 -2.9934 -4.8672 -10.1191 2.6499 -6.7398 19.1324 0.7078 -3.1908 7.7556 0.0000 -0.0000 0.0000 -88.6864 1.6563 27.4180 16.1823 -25.7672 -3.7249 -0.0000 0.0000 -3.5565 5.7498 18.9804 1.8757 -7.1250 0.0000 -0.0000 -21.5086 47.8214 -1.5657 0.0000 -0.0000 0.0000 87.2648 -16.5848 23.6347 -13.2038 21.5851 -2.5278 0.0000 0.0000 7.8238 -9.5313 23.8525 -3.8843 7.1250 -0.0000 -0.0000 12.1608 -6.2794 11.0148
0.7416 16.1186 6.2135 6.5489 -0.9672 2.5253 0.0000 0.0000 0.0000 -34.2636 -6.7479 18.9191 0.0000 0.0000 0.0000 0.3385 5.0880 -14.0469 0.1581 2.5616 7.0605 0.0000 0.0000 0.0000 2.0070 33.7906 -28.7156 -1.8385 -8.5213 24.3090 -0.4565 -10.7823 -20.8673 -0.5429 -4.7205 13.1130 -10.5422 0.1022 12.7344 1.0370 -1.6408 -4.9652 7.5138 0.1328 -12.4501 -2.8613 -4.8192 -9.8286 2.6285 -6.6942 18.9833 0.6931 -3.1669 7.6474 0.0000 0.0000 0.0000 -88.6934 1.5762 27.3455 16.1296 -25.6961 -3.7020 -0.0000 0.0000 -3.3399 5.3145 19.2509 1.7567 -7.1250 0.0000 -0.0000 -22.0222 48.0127 -1.7151 0.0000 0.0000 0.0000 87.2828 -16.7679 23.6754 -13.1995 21.5788 -2.5262 0.0000 0.0000 7.8184 -9.1496 22.0106 -3.4543 7.1250 -0.0000 -0.0000 12.3678 -8.1288 10.7551
0.7363 16.0993 6.3453 6.7592 -0.7780 2.6290 0.0000 0.0000 0.0000 -34.4772 -6.4574 19.3240 0.0000 -0.0000 -0.0000 0.3844 4.7045 -14.3937 0.1389 2.4016 6.6169 0.0000 0.0000 0.0000 1.2214 34.5179 -28.7450 -1.7507 -8.3263 23.7095 -0.5225 -10.8884 -21.6270 -0.5265 -4.6498 12.9124 -10.5762 0.0509 12.6931 0.9680 -1.7253 -5.0663 7.4743 0.1009 -12.5271 -2.8330 -4.8010 -9.5471 2.5864 -6.6607 18.6829 0.6885 -3.1591 7.4948 0.0000 0.0000 0.0000 -88.7856 1.6604 27.4526 16.0585 -25.5999 -3.6712 -0.0000 0.0000 -3.3310 5.4870 18.8004 1.7732 -7.1250 0.0000 -0.0000 -21.6674 47.6182 -1.4652 0.0000 0.0000 0.0000 87.2463 -16.9997 23.5825 -13.1949 21.5722 -2.5245 0.0000 0.0000 7.9483 -8.8883 21.1070 -3.2233 7.1250 -0.0000 -0.0000 12.5258 -9.0412 10.6668
0.7241 16.0802 6.4830 6.7997 -0.5651 2.6883 0.0000 0.0000 0.0000 -34.4603 -6.1619 19.7922 0.0000 0.0000 0.0000 0.4198 4.3752 -14.6335 0.1033 2.0725 5.7060 0.0000 0.0000 0.0000 0.7624 35.2796 -28.6858 -1.6952 -8.2001 23.3234 -0.5653 -11.1254 -22.2727 -0.4921 -4.4976 12.4811 -10.4685 0.0339 12.7172 0.9448 -1.7368 -5.1083 7.3910 0.0911 -12.5893 -3.0484 -4.8654 -9.4867 2.7151 -6.7341 18.5546 0.7609 -3.1991 7.4566 0.0000 0.0000 0.0000 -88.8790 1.6262 27.6432 15.9279 -25.4228 -3.6149 -0.0000 0.0000 -3.3020 5.7476 18.0604 1.7873 -7.1250 0.0000 -0.0000 -21.1173 46.9638 -1.0696 0.0000 0.0000 0.0000 87.2667 -17.1163 23.3002 -13.1579 21.5182 -2.5109 0.0000 0.0000 8.0706 -9.0953 21.2766 -3.3247 7.1250 -0.0000 -0.0000 12.3963 -8.8555 10.5980
0.7120 16.0643 6.6267 6.7058 -0.3829 2.7019 0.0000 0.0000 0.0000 -34.2911 -5.8097 20.2892 0.0000 -0.0000 -0.0000 0.4471 4.0671 -14.7821 0.0683 1.6862 4.6392 0.0000 0.0000 0.0000 0.7168 35.6539 -28.5591 -1.6605 -8.1199 23.0788 -0.5625 -11.3795 -22.5041 -0.4228 -4.1732 11.5644 -10.3392 -0.0448 12.6687 0.9644 -1.8099 -5.0857 7.3530 0.0414 -12.5175 -3.1322 -4.9028 -9.5576 2.7808 -6.7891 18.7209 0.7868 -3.2229 7.5309 -0.0000 0.0000 0.0000 -88.9081 1.5319 27.5283 15.8252 -25.2831 -3.5710 -0.0000 0.0000 -3.1837 5.7961 17.6069 1.7587 -7.1250 0.0000 -0.0000 -20.8870 46.5464 -0.8328 -0.0000 0.0000 0.0000 87.3140 -17.0382 23.0354 -12.9429 21.2034 -2.4326 0.0000 0.0000 8.4256 -9.1652 21.4297 -3.3735 7.1250 -0.0000 -0.0000 12.3532 -8.6985 10.5989
0.7036 16.0453 6.7748 6.6971 -0.2796 2.6554 0.0000 0.0000 0.0000 -34.2196 -5.3710 20.7645 0.0000 -0.0000 -0.0000 0.4780 3.7185 -14.9533 0.0535 1.4924 4.1047 0.0000 0.0000 0.0000 0.8236 35.5692 -28.3908 -1.6381 -8.0676 22.9195 -0.5929 -11.0795 -22.4829 -0.4750 -4.4202 12.2619 -10.2767 -0.1261 12.5224 0.9736 -1.8852 -5.0104 7.3360 -0.0145 -12.3244 -3.1797 -4.8682 -9.5395 2.8311 -6.7451 18.7575 0.8153 -3.2006 7.5418 -0.0000 -0.0000 0.0000 -89.0068 1.3465 27.2167 15.6318 -25.0189 -3.4888 -0.0000 0.0000 -2.9774 5.7586 18.1054 1.7951 -7.1250 0.0000 -0.0000 -21.1262 47.0072 -1.0937 -0.0000 -0.0000 0.0000 87.1677 -17.0927 23.3433 -12.9343 21.1908 -2.4295 0.0000 0.0000 8.3641 -8.9984 21.1372 -3.2682 7.1250 -0.0000 -0.0000 12.4566 -9.0016 10.6150
0.6888 16.0257 6.9173 6.6520 -0.1465 2.6186 0.0000 0.0000 0.0000 -34.0738 -4.9807 21.2200 0.0000 -0.0000 -0.0000 0.4982 3.4451 -15.0396 0.0428 1.3352 3.6717 0.0000 0.0000 0.0000 1.1006 35.3185 -28.1845 -1.6290 -8.0464 22.8552 -0.6629 -10.4940 -22.5552 -0.6738 -5.2491 14.6203 -10.2065 -0.1697 12.4011 1.0084 -1.9050 -4.8715 7.3306 -0.0488 -12.0840 -3.2555 -4.8499 -9.8000 2.8940 -6.7096 18.7176 0.8452 -3.1797 7.5791 -0.0000 0.0000 0.0000 -89.1068 0.9925 27.0171 15.3780 -24.6701 -3.3822 -0.0000 0.0000 -2.5393 5.4962 18.8541 1.7810 -7.1250 0.0000 -0.0000 -21.6825 47.6695 -1.4949 -0.0000 0.0000 0.0000 87.0663 -16.8868 23.2582 -12.9007 21.1416 -2.4174 0.0000 0.0000 8.5950 -9.1091 21.7968 -3.4071 7.1250 -0.0000 -0.0000 12.3911 -8.3428 10.7227
0.6650 16.0027 7.0522 6.6665 0.1050 2.6766 0.0000 0.0000 0.0000 -33.9615 -4.7445 21.6764 0.0000 -0.0000 -0.0000 0.4967 3.3567 -14.9645 0.0189 0.8879 2.4403 0.0000 0.0000 0.0000 1.3571 34.8974 -28.0968 -1.6402 -8.0727 22.9350 -0.5715 -10.5301 -21.7391 -0.6605 -5.1977 14.4734 -10.2350 -0.1998 12.3957 1.0105 -1.9472 -4.8309 7.3569 -0.0718 -12.0244 -3.1612 -4.8771 -10.0764 2.7341 -6.7244 18.7437 0.7691 -3.1907 7.6285 0.0000 -0.0000 0.0000 -89.1642 0.7457 26.8564 15.1055 -24.2928 -3.2692 -0.0000 0.0000 -1.9515 5.2513 18.6002 1.6792 -7.1250 0.0000 -0.0000 -21.7926 47.4007 -1.3524 0.0000 -0.0000 0.0000 87.0994 -16.6986 22.9172 -12.7887 20.9769 -2.3771 0.0000 0.0000 8.8385 -9.4463 22.7780 -3.6857 7.1250 -0.0000 -0.0000 12.1929 -7.3450 10.7876
